<svg width="16" height="17" viewBox="0 0 16 17" fill="none" xmlns="http://www.w3.org/2000/svg">
<g clip-path="url(#clip0_1_160)">
<path d="M10.8506 9.91284L8.61975 8.23972V4.83153C8.61975 4.48884 8.34275 4.21184 8.00006 4.21184C7.65737 4.21184 7.38037 4.48884 7.38037 4.83153V8.54959C7.38037 8.74478 7.47209 8.92884 7.62825 9.04534L10.1069 10.9044C10.2185 10.988 10.3486 11.0283 10.4781 11.0283C10.6671 11.0283 10.853 10.9434 10.9745 10.7798C11.1803 10.5065 11.1245 10.118 10.8506 9.91284Z" fill="#4E4B66"/>
<path d="M8 0.5C3.58853 0.5 0 4.08853 0 8.5C0 12.9115 3.58853 16.5 8 16.5C12.4115 16.5 16 12.9115 16 8.5C16 4.08853 12.4115 0.5 8 0.5ZM8 15.2607C4.27266 15.2607 1.23934 12.2273 1.23934 8.5C1.23934 4.77266 4.27266 1.73934 8 1.73934C11.728 1.73934 14.7607 4.77266 14.7607 8.5C14.7607 12.2273 11.7273 15.2607 8 15.2607Z" fill="#4E4B66"/>
</g>
<defs>
<clipPath id="clip0_1_160">
<rect width="16" height="16" fill="white" transform="translate(0 0.5)"/>
</clipPath>
</defs>
</svg>
