<svg width="45" height="38" viewBox="0 0 45 38" fill="none" xmlns="http://www.w3.org/2000/svg">
<g clip-path="url(#clip0_1_328)">
<path d="M4.23165 15.2385C1.89832 15.2385 0 16.9259 0 19C0 21.074 1.89832 22.7614 4.23165 22.7614H4.51376V15.2385H4.23165Z" fill="#E8E8E8"/>
<path d="M0 19C0.0253968 21.0779 1.91341 22.7615 4.23158 22.7615H4.51376V19H0Z" fill="#BABABA"/>
<path d="M40.6239 15.2385V22.7614C42.9444 22.7614 44.3854 20.9456 44.3854 19C44.3854 17.0732 42.9647 15.2385 40.6239 15.2385Z" fill="#E8E8E8"/>
<path d="M40.6239 19V22.7615C42.9283 22.7615 44.3649 20.9514 44.3854 19H40.6239Z" fill="#BABABA"/>
<path d="M28.587 15.2385H15.798V22.7614H28.587V15.2385Z" fill="#E8E8E8"/>
<path d="M28.587 19H15.798V22.7615H28.587V19Z" fill="#BABABA"/>
<path d="M5.08905 8.46786C4.35587 8.46786 3.76147 9.05244 3.76147 9.7735V28.2265C3.76147 28.9475 4.35587 29.5321 5.08905 29.5321H9.77982V8.46786H5.08905Z" fill="#F87878"/>
<path d="M3.76147 19V28.2211C3.76147 28.9451 4.35587 29.5321 5.08905 29.5321H9.77982V19H3.76147Z" fill="#F87878"/>
<path d="M15.2965 32.5413H10.2812C9.58872 32.5413 9.02734 31.962 9.02734 31.2475V6.75244C9.02734 6.03794 9.58872 5.45869 10.2812 5.45869H15.2965C15.9889 5.45869 16.5503 6.03794 16.5503 6.75244V31.2475C16.5503 31.962 15.9889 32.5413 15.2965 32.5413Z" fill="#F41E1E"/>
<path d="M9.02734 19V31.2434C9.02734 31.9602 9.58872 32.5413 10.2812 32.5413H15.2965C15.9889 32.5413 16.5503 31.9602 16.5503 31.2434V19H9.02734Z" fill="#F41E1E"/>
<path d="M40.0285 8.46786H35.3575V29.5321H40.0285C40.7726 29.5321 41.3759 28.9475 41.3759 28.2265V9.7735C41.3759 9.05244 40.7726 8.46786 40.0285 8.46786Z" fill="#F87878"/>
<path d="M35.3575 19V29.5321H40.0285C40.7726 29.5321 41.3759 28.9451 41.3759 28.2211V19H35.3575Z" fill="#F87878"/>
<path d="M34.1037 32.5413H29.0884C28.396 32.5413 27.8346 31.962 27.8346 31.2475V6.75244C27.8346 6.03794 28.396 5.45869 29.0884 5.45869H34.1037C34.7962 5.45869 35.3575 6.03794 35.3575 6.75244V31.2475C35.3575 31.962 34.7962 32.5413 34.1037 32.5413Z" fill="#F41E1E"/>
<path d="M27.8346 19V31.2434C27.8346 31.9602 28.396 32.5413 29.0884 32.5413H34.1037C34.7962 32.5413 35.3575 31.9602 35.3575 31.2434V19H27.8346Z" fill="#F41E1E"/>
</g>
<defs>
<clipPath id="clip0_1_328">
<rect width="44.3853" height="36.1101" fill="white" transform="translate(0 0.944954)"/>
</clipPath>
</defs>
</svg>
