<svg width="16" height="17" viewBox="0 0 16 17" fill="none" xmlns="http://www.w3.org/2000/svg">
<path d="M12.6666 3.16667H3.33325C2.80282 3.16667 2.29411 3.37738 1.91904 3.75245C1.54397 4.12753 1.33325 4.63623 1.33325 5.16667V11.8333C1.33325 12.3638 1.54397 12.8725 1.91904 13.2475C2.29411 13.6226 2.80282 13.8333 3.33325 13.8333H12.6666C13.197 13.8333 13.7057 13.6226 14.0808 13.2475C14.4559 12.8725 14.6666 12.3638 14.6666 11.8333V5.16667C14.6666 4.63623 14.4559 4.12753 14.0808 3.75245C13.7057 3.37738 13.197 3.16667 12.6666 3.16667ZM12.3933 4.5L8.47325 8.42C8.41128 8.48249 8.33754 8.53208 8.2563 8.56593C8.17506 8.59977 8.08793 8.6172 7.99992 8.6172C7.91191 8.6172 7.82477 8.59977 7.74353 8.56593C7.66229 8.53208 7.58856 8.48249 7.52659 8.42L3.60659 4.5H12.3933ZM13.3333 11.8333C13.3333 12.0101 13.263 12.1797 13.138 12.3047C13.013 12.4298 12.8434 12.5 12.6666 12.5H3.33325C3.15644 12.5 2.98687 12.4298 2.86185 12.3047C2.73682 12.1797 2.66659 12.0101 2.66659 11.8333V5.44L6.58659 9.36C6.96159 9.73453 7.46992 9.94491 7.99992 9.94491C8.52992 9.94491 9.03825 9.73453 9.41325 9.36L13.3333 5.44V11.8333Z" fill="#4E4B66"/>
</svg>
