<svg width="20" height="21" viewBox="0 0 20 21" fill="none" xmlns="http://www.w3.org/2000/svg">
<path d="M17.5475 6.48396C17.5552 6.65996 17.5552 6.82796 17.5552 7.00396C17.563 12.34 13.6426 18.5 6.47319 18.5C4.35865 18.5 2.2827 17.868 0.5 16.684C0.808692 16.724 1.11738 16.74 1.42608 16.74C3.1779 16.74 4.88343 16.132 6.26483 15.004C4.59789 14.972 3.1316 13.844 2.62226 12.196C3.20877 12.316 3.81072 12.292 4.3818 12.124C2.56824 11.756 1.26401 10.1 1.2563 8.17197C1.2563 8.15597 1.2563 8.13997 1.2563 8.12397C1.79651 8.43597 2.40617 8.61197 3.02356 8.62797C1.31803 7.44396 0.78554 5.08396 1.81966 3.23595C3.80301 5.76396 6.72015 7.29196 9.85337 7.45996C9.53696 6.05996 9.96913 4.58796 10.9801 3.59595C12.5467 2.06795 15.0162 2.14795 16.498 3.77195C17.37 3.59595 18.2112 3.25995 18.9752 2.78795C18.682 3.72395 18.0723 4.51596 17.262 5.01996C18.0337 4.92396 18.79 4.70796 19.5 4.38795C18.9752 5.20396 18.3115 5.90796 17.5475 6.48396Z" fill="#BABABA"/>
</svg>
